<svg xmlns="http://www.w3.org/2000/svg" xmlns:xlink="http://www.w3.org/1999/xlink" width="100" viewBox="0 0 75 74.999997" height="100" preserveAspectRatio="xMidYMid meet"><defs><clipPath id="95d9efe1c7"><path d="M 5.023438 5.023438 L 69.976562 5.023438 L 69.976562 69.976562 L 5.023438 69.976562 Z M 5.023438 5.023438 "></path></clipPath><clipPath id="085270bfa2"><path d="M 37.5 5.023438 C 19.566406 5.023438 5.023438 19.566406 5.023438 37.5 C 5.023438 55.433594 19.566406 69.976562 37.5 69.976562 C 55.433594 69.976562 69.976562 55.433594 69.976562 37.5 C 69.976562 19.566406 55.433594 5.023438 37.5 5.023438 Z M 37.5 5.023438 "></path></clipPath></defs><g id="81d5c59b9e"><g clip-rule="nonzero" clip-path="url(#95d9efe1c7)"><g clip-rule="nonzero" clip-path="url(#085270bfa2)"><path style=" stroke:none;fill-rule:nonzero;fill:#ffffff;fill-opacity:1;" d="M 5.023438 5.023438 L 69.976562 5.023438 L 69.976562 69.976562 L 5.023438 69.976562 Z M 5.023438 5.023438 "></path></g></g><path style=" stroke:none;fill-rule:nonzero;fill:#00a1ff;fill-opacity:1;" d="M 75 37.5 C 75 58.175781 58.175781 75 37.5 75 C 16.824219 75 0 58.175781 0 37.5 C 0 16.824219 16.824219 0 37.5 0 C 58.175781 0 75 16.824219 75 37.5 Z M 44.304688 30.050781 C 44.304688 29.34375 43.730469 28.765625 43.023438 28.765625 L 31.976562 28.765625 C 31.269531 28.765625 30.695312 29.34375 30.695312 30.050781 L 30.695312 57.726562 C 30.695312 61.195312 33.519531 64.082031 37.050781 64.082031 L 38.015625 64.082031 C 41.480469 64.082031 44.371094 61.257812 44.371094 57.726562 L 44.371094 30.050781 Z M 44.882812 18.300781 C 44.882812 14.191406 41.546875 10.917969 37.5 10.917969 C 33.453125 10.917969 30.117188 14.253906 30.117188 18.300781 C 30.117188 22.347656 33.390625 25.683594 37.5 25.683594 C 41.609375 25.683594 44.882812 22.410156 44.882812 18.300781 Z M 44.882812 18.300781 "></path></g></svg>