<svg xmlns="http://www.w3.org/2000/svg" xmlns:xlink="http://www.w3.org/1999/xlink" width="100" viewBox="0 0 75 74.999997" height="100" preserveAspectRatio="xMidYMid meet"><defs><clipPath id="4753859857"><path d="M 0.0507812 3.4375 L 74.941406 3.4375 L 74.941406 71.554688 L 0.0507812 71.554688 Z M 0.0507812 3.4375 "></path></clipPath><clipPath id="039aff0538"><path d="M 1.046875 7.089844 L 74.941406 7.089844 L 74.941406 71.554688 L 1.046875 71.554688 Z M 1.046875 7.089844 "></path></clipPath></defs><g id="63be1ec274"><g clip-rule="nonzero" clip-path="url(#4753859857)"><path style=" stroke:none;fill-rule:nonzero;fill:#fff500;fill-opacity:1;" d="M 1.039062 60.277344 L 30.910156 7.285156 C 33.800781 2.152344 41.195312 2.152344 44.085938 7.285156 L 73.957031 60.277344 C 76.800781 65.320312 73.15625 71.554688 67.367188 71.554688 L 7.628906 71.554688 C 1.839844 71.554688 -1.804688 65.320312 1.039062 60.277344 "></path></g><g clip-rule="nonzero" clip-path="url(#039aff0538)"><path style=" stroke:none;fill-rule:nonzero;fill:#fff500;fill-opacity:1;" d="M 73.957031 60.277344 L 44.085938 7.285156 C 42.496094 4.464844 66.613281 56.496094 66.613281 56.496094 C 69.457031 61.539062 65.8125 67.777344 60.027344 67.777344 L 1.078125 67.777344 C 2.355469 69.980469 4.71875 71.554688 7.628906 71.554688 L 67.367188 71.554688 C 73.15625 71.554688 76.800781 65.320312 73.957031 60.277344 "></path></g><path style=" stroke:none;fill-rule:nonzero;fill:#ffffff;fill-opacity:1;" d="M 37.496094 52.007812 C 35.175781 52.007812 33.289062 53.890625 33.289062 56.214844 C 33.289062 58.539062 35.175781 60.421875 37.496094 60.421875 C 39.820312 60.421875 41.707031 58.539062 41.707031 56.214844 C 41.707031 53.890625 39.820312 52.007812 37.496094 52.007812 "></path><path style=" stroke:none;fill-rule:nonzero;fill:#ffffff;fill-opacity:1;" d="M 37.496094 18.351562 C 33.8125 18.351562 30.917969 21.515625 31.25 25.1875 L 32.914062 43.617188 C 33.125 45.992188 35.117188 47.808594 37.496094 47.808594 C 39.878906 47.808594 41.867188 45.992188 42.082031 43.617188 L 43.746094 25.1875 C 44.078125 21.515625 41.183594 18.351562 37.496094 18.351562 "></path></g></svg>