<svg xmlns="http://www.w3.org/2000/svg" xmlns:xlink="http://www.w3.org/1999/xlink" width="100" viewBox="0 0 75 74.999997" height="100" preserveAspectRatio="xMidYMid meet"><defs><clipPath id="5eda6bf24a"><path d="M 4.539062 4.539062 L 70.460938 4.539062 L 70.460938 70.460938 L 4.539062 70.460938 Z M 4.539062 4.539062 "></path></clipPath><clipPath id="624f9b82ba"><path d="M 37.5 4.539062 C 19.296875 4.539062 4.539062 19.296875 4.539062 37.5 C 4.539062 55.703125 19.296875 70.460938 37.5 70.460938 C 55.703125 70.460938 70.460938 55.703125 70.460938 37.5 C 70.460938 19.296875 55.703125 4.539062 37.5 4.539062 Z M 37.5 4.539062 "></path></clipPath></defs><g id="c1813db019"><g clip-rule="nonzero" clip-path="url(#5eda6bf24a)"><g clip-rule="nonzero" clip-path="url(#624f9b82ba)"><path style=" stroke:none;fill-rule:nonzero;fill:#ffffff;fill-opacity:1;" d="M 4.539062 4.539062 L 70.460938 4.539062 L 70.460938 70.460938 L 4.539062 70.460938 Z M 4.539062 4.539062 "></path></g></g><path style=" stroke:none;fill-rule:nonzero;fill:#e80000;fill-opacity:1;" d="M 37.5 0.0820312 C 16.835938 0.0820312 0.0820312 16.835938 0.0820312 37.5 C 0.0820312 58.164062 16.835938 74.917969 37.5 74.917969 C 58.164062 74.917969 74.917969 58.164062 74.917969 37.5 C 74.917969 16.835938 58.164062 0.0820312 37.5 0.0820312 Z M 14.875 21.226562 C 15.503906 20.601562 20.515625 15.589844 21.140625 14.964844 C 21.550781 14.5625 22.207031 14.5625 22.621094 14.964844 C 23.609375 15.953125 28.550781 20.898438 37.449219 29.808594 C 46.34375 20.910156 51.285156 15.96875 52.277344 14.980469 C 52.667969 14.574219 53.316406 14.558594 53.726562 14.953125 C 53.738281 14.960938 53.746094 14.972656 53.753906 14.980469 C 54.378906 15.605469 59.394531 20.621094 60.019531 21.246094 C 60.417969 21.652344 60.417969 22.300781 60.019531 22.707031 C 59.035156 23.695312 54.109375 28.625 45.246094 37.5 C 54.140625 46.375 59.082031 51.304688 60.070312 52.292969 C 60.277344 52.480469 60.390625 52.746094 60.386719 53.023438 C 60.386719 53.304688 60.273438 53.574219 60.070312 53.773438 C 59.449219 54.398438 54.449219 59.394531 53.824219 60.019531 C 53.625 60.21875 53.355469 60.332031 53.074219 60.332031 C 52.800781 60.332031 52.535156 60.21875 52.34375 60.019531 C 51.355469 59.039062 46.40625 54.144531 37.5 45.332031 C 28.601562 54.226562 23.660156 59.171875 22.671875 60.160156 C 22.277344 60.566406 21.628906 60.582031 21.222656 60.1875 C 21.210938 60.179688 21.203125 60.167969 21.191406 60.160156 C 20.566406 59.535156 15.554688 54.535156 14.929688 53.910156 C 14.527344 53.5 14.527344 52.84375 14.929688 52.433594 C 15.917969 51.441406 20.867188 46.492188 29.773438 37.585938 C 21.828125 29.652344 16.863281 24.691406 14.875 22.707031 C 14.476562 22.296875 14.476562 21.640625 14.875 21.226562 Z M 14.875 21.226562 "></path></g></svg>