<svg xmlns="http://www.w3.org/2000/svg" xmlns:xlink="http://www.w3.org/1999/xlink" width="100" viewBox="0 0 75 74.999997" height="100" preserveAspectRatio="xMidYMid meet"><g id="f1bba02a12"><path style=" stroke:none;fill-rule:nonzero;fill:#86d008;fill-opacity:1;" d="M 37.484375 75 C 16.808594 75 -0.015625 58.179688 -0.015625 37.5 C -0.015625 16.820312 16.804688 0.00390625 37.484375 0.00390625 C 58.164062 0.00390625 74.984375 16.824219 74.984375 37.503906 C 74.984375 58.1875 58.160156 75 37.484375 75 Z M 37.484375 75 "></path><path style=" stroke:none;fill-rule:nonzero;fill:#86d008;fill-opacity:1;" d="M 57.714844 20.777344 L 23.808594 54.6875 L 43.625 74.5 C 61.222656 71.59375 74.722656 56.390625 74.984375 38.042969 Z M 57.714844 20.777344 "></path><path style=" stroke:none;fill-rule:nonzero;fill:#ffffff;fill-opacity:1;" d="M 58.46875 21.503906 C 56.304688 19.15625 54.339844 17.570312 51.988281 19.730469 L 27.984375 41.867188 L 21.921875 34.9375 C 19.820312 32.535156 17.695312 33.902344 15.289062 36.003906 C 12.882812 38.109375 11.101562 40.15625 13.210938 42.558594 L 19.46875 49.714844 L 24.578125 55.5625 C 25.953125 57.132812 28.355469 57.261719 29.890625 55.851562 L 35.597656 50.585938 L 59.835938 28.246094 C 62.1875 26.082031 60.632812 23.855469 58.46875 21.503906 Z M 58.46875 21.503906 "></path></g></svg>